<?xml version="1.0" standalone="no"?><!DOCTYPE svg PUBLIC "-//W3C//DTD SVG 1.1//EN" "http://www.w3.org/Graphics/SVG/1.1/DTD/svg11.dtd"><svg t="1665580189005" class="icon" viewBox="0 0 1024 1024" version="1.1" xmlns="http://www.w3.org/2000/svg" p-id="10151" xmlns:xlink="http://www.w3.org/1999/xlink" width="200" height="200"><path d="M512 192c-176.736 0-320 143.264-320 320h320v320c176.736 0 320-143.264 320-320s-143.264-320-320-320z" fill="#FFD740" p-id="10152"></path><path d="M512 904C295.856 904 120 728.16 120 512S295.856 120 512 120 904 295.84 904 512 728.144 904 512 904z m0-768C304.672 136 136 304.672 136 512S304.672 888 512 888 888 719.328 888 512 719.328 136 512 136z" fill="#263238" p-id="10153"></path><path d="M328 536H512a24 24 0 0 0 24-24V280a24 24 0 1 0-48 0v208h-160a24 24 0 1 0 0 48z" fill="#FF5252" p-id="10154"></path><path d="M512 544H328c-17.648 0-32-14.352-32-32s14.352-32 32-32H480V280c0-17.648 14.352-32 32-32s32 14.352 32 32V512c0 17.648-14.352 32-32 32z m-184-48a16.016 16.016 0 0 0 0 32H512c8.816 0 16-7.168 16-16V280a16.016 16.016 0 0 0-32 0v208a8 8 0 0 1-8 8h-160z" fill="#263238" p-id="10155"></path><path d="M512 512m-64 0a64 64 0 1 0 128 0 64 64 0 1 0-128 0Z" fill="#40C4FF" p-id="10156"></path><path d="M512 584c-39.696 0-72-32.304-72-72s32.304-72 72-72 72 32.304 72 72-32.304 72-72 72z m0-128c-30.88 0-56 25.12-56 56s25.12 56 56 56 56-25.12 56-56-25.12-56-56-56zM64 520a8 8 0 0 1-8-8C56 260.56 260.56 56 512 56a8 8 0 0 1 0 16C269.376 72 72 269.392 72 512a8 8 0 0 1-8 8zM560 72h-16a8 8 0 0 1 0-16h16a8 8 0 0 1 0 16zM512 968a8 8 0 0 1 0-16c242.624 0 440-197.392 440-440a8 8 0 0 1 16 0c0 251.44-204.56 456-456 456zM480 968h-16a8 8 0 0 1 0-16h16a8 8 0 0 1 0 16z" fill="#263238" p-id="10157"></path><path d="M512 840c-180.864 0-328-147.136-328-328S331.136 184 512 184 840 331.136 840 512 692.864 840 512 840z m0-640c-172.032 0-312 139.968-312 312S339.968 824 512 824 824 684.032 824 512 684.032 200 512 200zM848 104h-64a8 8 0 0 1 0-16h64a8 8 0 0 1 0 16z" fill="#263238" p-id="10158"></path><path d="M816 136a8 8 0 0 1-8-8V64a8 8 0 0 1 16 0v64a8 8 0 0 1-8 8z" fill="#263238" p-id="10159"></path><path d="M960 208h-64a8 8 0 0 1 0-16h64a8 8 0 0 1 0 16z" fill="#263238" p-id="10160"></path><path d="M928 240a8 8 0 0 1-8-8v-64a8 8 0 0 1 16 0v64a8 8 0 0 1-8 8z" fill="#263238" p-id="10161"></path></svg>